<?xml version="1.0" encoding="UTF-8" standalone="no"?>
<svg
   width="134"
   height="24"
   viewBox="0 0 134 24"
   fill="none"
   version="1.1"
   id="svg17"
   sodipodi:docname="Logo2.svg"
   inkscape:version="1.2.2 (732a01da63, 2022-12-09)"
   xmlns:inkscape="http://www.inkscape.org/namespaces/inkscape"
   xmlns:sodipodi="http://sodipodi.sourceforge.net/DTD/sodipodi-0.dtd"
   xmlns="http://www.w3.org/2000/svg"
   xmlns:svg="http://www.w3.org/2000/svg">
  <sodipodi:namedview
     id="namedview19"
     pagecolor="#ffffff"
     bordercolor="#000000"
     borderopacity="0.25"
     inkscape:showpageshadow="2"
     inkscape:pageopacity="0.0"
     inkscape:pagecheckerboard="0"
     inkscape:deskcolor="#d1d1d1"
     showgrid="false"
     inkscape:zoom="9.0298507"
     inkscape:cx="65.615702"
     inkscape:cy="11.960331"
     inkscape:window-width="1920"
     inkscape:window-height="1017"
     inkscape:window-x="-8"
     inkscape:window-y="-8"
     inkscape:window-maximized="1"
     inkscape:current-layer="svg17" />
  <g
     clip-path="url(#clip0_1_431)"
     id="g8">
    <path
       d="M19 9L20.25 6.25L23 5L20.25 3.75L19 1L17.75 3.75L15 5L17.75 6.25L19 9Z"
       fill="#464646"
       id="path2" />
    <path
       d="M19 15L17.75 17.75L15 19L17.75 20.25L19 23L20.25 20.25L23 19L20.25 17.75L19 15Z"
       fill="#464646"
       id="path4" />
    <path
       d="M11.5 9.5L9 4L6.5 9.5L1 12L6.5 14.5L9 20L11.5 14.5L17 12L11.5 9.5ZM9.99 12.99L9 15.17L8.01 12.99L5.83 12L8.01 11.01L9 8.83L9.99 11.01L12.17 12L9.99 12.99Z"
       fill="#464646"
       id="path6" />
  </g>
  <defs
     id="defs15">
    <clipPath
       id="clip0_1_431">
      <rect
         width="24"
         height="24"
         fill="white"
         id="rect12" />
    </clipPath>
  </defs>
  <text
     xml:space="preserve"
     style="font-size:13.6557px;font-family:sans-serif;-inkscape-font-specification:sans-serif;fill:#464646;stroke-width:1.13798"
     x="32.804775"
     y="16.83374"
     id="text233"
     transform="scale(0.94056621,1.0631894)"><tspan
       sodipodi:role="line"
       id="tspan231"
       x="32.804775"
       y="16.83374"
       style="font-style:normal;font-variant:normal;font-weight:bold;font-stretch:normal;font-family:sans-serif;-inkscape-font-specification:'sans-serif Bold';stroke-width:1.13798">Carlos Múnera </tspan></text>
</svg>
