<svg width="134" height="24" viewBox="0 0 134 24" fill="none" xmlns="http://www.w3.org/2000/svg">
<g clip-path="url(#clip0_1_431)">
<path d="M19 9L20.25 6.25L23 5L20.25 3.75L19 1L17.75 3.75L15 5L17.75 6.25L19 9Z" fill="#464646"/>
<path d="M19 15L17.75 17.75L15 19L17.75 20.25L19 23L20.25 20.25L23 19L20.25 17.75L19 15Z" fill="#464646"/>
<path d="M11.5 9.5L9 4L6.5 9.5L1 12L6.5 14.5L9 20L11.5 14.5L17 12L11.5 9.5ZM9.99 12.99L9 15.17L8.01 12.99L5.83 12L8.01 11.01L9 8.83L9.99 11.01L12.17 12L9.99 12.99Z" fill="#464646"/>
</g>
<path d="M33.184 17.5V6.14H40.816V8.076H35.392V11.004H39.904V12.796H35.392V17.5H33.184ZM41.7398 14.364V9.116H43.8838V13.9C43.8838 15.1907 44.3478 15.836 45.2758 15.836C45.6918 15.836 46.0918 15.7133 46.4758 15.468C46.8704 15.212 47.1904 14.828 47.4358 14.316V9.116H49.5798V15.1C49.5798 15.3347 49.6171 15.5 49.6918 15.596C49.7664 15.6813 49.8998 15.7347 50.0918 15.756V17.5C49.8784 17.5427 49.6971 17.5693 49.5478 17.58C49.4091 17.5907 49.2811 17.596 49.1638 17.596C48.7798 17.596 48.4651 17.5107 48.2198 17.34C47.9851 17.1587 47.8464 16.9133 47.8038 16.604L47.7558 15.932C47.3824 16.508 46.9024 16.94 46.3158 17.228C45.7291 17.516 45.0838 17.66 44.3798 17.66C43.5158 17.66 42.8598 17.3827 42.4118 16.828C41.9638 16.2627 41.7398 15.4413 41.7398 14.364ZM51.6944 5.82H53.8384V14.812C53.8384 15.2067 53.9024 15.468 54.0304 15.596C54.1584 15.724 54.3344 15.788 54.5584 15.788C54.729 15.788 54.905 15.7667 55.0864 15.724C55.2677 15.6813 55.4277 15.628 55.5664 15.564L55.8544 17.196C55.5664 17.3347 55.2304 17.4413 54.8464 17.516C54.4624 17.5907 54.1157 17.628 53.8064 17.628C53.1344 17.628 52.6117 17.452 52.2384 17.1C51.8757 16.7373 51.6944 16.2253 51.6944 15.564V5.82ZM56.2125 15.02C56.2125 14.476 56.3618 14.0013 56.6605 13.596C56.9698 13.18 57.3965 12.86 57.9405 12.636C58.4845 12.412 59.1085 12.3 59.8125 12.3C60.1645 12.3 60.5218 12.332 60.8845 12.396C61.2472 12.4493 61.5618 12.5293 61.8285 12.636V12.188C61.8285 11.6547 61.6685 11.244 61.3485 10.956C61.0392 10.668 60.5752 10.524 59.9565 10.524C59.4978 10.524 59.0605 10.604 58.6445 10.764C58.2285 10.924 57.7912 11.1587 57.3325 11.468L56.6445 10.06C57.1992 9.69733 57.7645 9.42533 58.3405 9.244C58.9272 9.06267 59.5405 8.972 60.1805 8.972C61.3752 8.972 62.3032 9.27067 62.9645 9.868C63.6365 10.4653 63.9725 11.3187 63.9725 12.428V15.1C63.9725 15.3347 64.0098 15.5 64.0845 15.596C64.1592 15.6813 64.2925 15.7347 64.4845 15.756V17.5C64.2925 17.5427 64.1165 17.5693 63.9565 17.58C63.8072 17.6013 63.6792 17.612 63.5725 17.612C63.1458 17.612 62.8205 17.516 62.5965 17.324C62.3725 17.132 62.2392 16.8973 62.1965 16.62L62.1485 16.188C61.7752 16.668 61.3165 17.036 60.7725 17.292C60.2392 17.5373 59.6898 17.66 59.1245 17.66C58.5592 17.66 58.0578 17.548 57.6205 17.324C57.1832 17.0893 56.8365 16.7747 56.5805 16.38C56.3352 15.9747 56.2125 15.5213 56.2125 15.02ZM61.4285 15.452C61.6952 15.196 61.8285 14.9507 61.8285 14.716V13.868C61.2738 13.644 60.7138 13.532 60.1485 13.532C59.5832 13.532 59.1245 13.6547 58.7725 13.9C58.4205 14.1347 58.2445 14.4493 58.2445 14.844C58.2445 15.164 58.3725 15.452 58.6285 15.708C58.8845 15.964 59.2525 16.092 59.7325 16.092C60.0525 16.092 60.3618 16.0333 60.6605 15.916C60.9698 15.7987 61.2258 15.644 61.4285 15.452ZM73.768 17.5H71.624V12.796C71.624 12.124 71.5067 11.6333 71.272 11.324C71.0373 11.0147 70.712 10.86 70.296 10.86C70.008 10.86 69.7147 10.9347 69.416 11.084C69.128 11.2333 68.8667 11.4413 68.632 11.708C68.3973 11.964 68.2267 12.2627 68.12 12.604V17.5H65.976V9.116H67.912V10.668C68.2213 10.1453 68.6693 9.73467 69.256 9.436C69.8427 9.12667 70.504 8.972 71.24 8.972C71.7627 8.972 72.1893 9.068 72.52 9.26C72.8507 9.44133 73.1067 9.692 73.288 10.012C73.4693 10.3213 73.592 10.6733 73.656 11.068C73.7307 11.4627 73.768 11.8627 73.768 12.268V17.5ZM75.0563 15.02C75.0563 14.476 75.2056 14.0013 75.5043 13.596C75.8136 13.18 76.2403 12.86 76.7843 12.636C77.3283 12.412 77.9523 12.3 78.6562 12.3C79.0083 12.3 79.3656 12.332 79.7283 12.396C80.0909 12.4493 80.4056 12.5293 80.6723 12.636V12.188C80.6723 11.6547 80.5123 11.244 80.1923 10.956C79.8829 10.668 79.4189 10.524 78.8003 10.524C78.3416 10.524 77.9043 10.604 77.4883 10.764C77.0723 10.924 76.6349 11.1587 76.1763 11.468L75.4883 10.06C76.0429 9.69733 76.6083 9.42533 77.1843 9.244C77.7709 9.06267 78.3843 8.972 79.0243 8.972C80.2189 8.972 81.1469 9.27067 81.8083 9.868C82.4803 10.4653 82.8163 11.3187 82.8163 12.428V15.1C82.8163 15.3347 82.8536 15.5 82.9283 15.596C83.0029 15.6813 83.1363 15.7347 83.3283 15.756V17.5C83.1363 17.5427 82.9603 17.5693 82.8003 17.58C82.6509 17.6013 82.5229 17.612 82.4163 17.612C81.9896 17.612 81.6643 17.516 81.4403 17.324C81.2163 17.132 81.0829 16.8973 81.0403 16.62L80.9923 16.188C80.6189 16.668 80.1603 17.036 79.6163 17.292C79.0829 17.5373 78.5336 17.66 77.9683 17.66C77.4029 17.66 76.9016 17.548 76.4643 17.324C76.0269 17.0893 75.6803 16.7747 75.4243 16.38C75.1789 15.9747 75.0563 15.5213 75.0563 15.02ZM80.2723 15.452C80.5389 15.196 80.6723 14.9507 80.6723 14.716V13.868C80.1176 13.644 79.5576 13.532 78.9923 13.532C78.4269 13.532 77.9683 13.6547 77.6163 13.9C77.2643 14.1347 77.0883 14.4493 77.0883 14.844C77.0883 15.164 77.2163 15.452 77.4723 15.708C77.7283 15.964 78.0963 16.092 78.5763 16.092C78.8963 16.092 79.2056 16.0333 79.5043 15.916C79.8136 15.7987 80.0696 15.644 80.2723 15.452ZM88.1515 13.308C88.1515 12.508 88.3115 11.7773 88.6315 11.116C88.9515 10.4547 89.3942 9.932 89.9595 9.548C90.5248 9.164 91.1702 8.972 91.8955 8.972C92.5142 8.972 93.0688 9.12667 93.5595 9.436C94.0608 9.73467 94.4502 10.1187 94.7275 10.588V5.82H96.8715V15.1C96.8715 15.3347 96.9088 15.5 96.9835 15.596C97.0582 15.6813 97.1862 15.7347 97.3675 15.756V17.5C96.9835 17.5747 96.6795 17.612 96.4555 17.612C96.0715 17.612 95.7515 17.516 95.4955 17.324C95.2502 17.132 95.1115 16.8813 95.0795 16.572L95.0475 16.044C94.7382 16.5667 94.3168 16.9667 93.7835 17.244C93.2608 17.5213 92.7115 17.66 92.1355 17.66C91.3568 17.66 90.6688 17.468 90.0715 17.084C89.4742 16.6893 89.0048 16.1667 88.6635 15.516C88.3222 14.8547 88.1515 14.1187 88.1515 13.308ZM94.7275 14.428V12.428C94.5568 11.9587 94.2635 11.5693 93.8475 11.26C93.4315 10.9507 93.0048 10.796 92.5675 10.796C92.1302 10.796 91.7462 10.9187 91.4155 11.164C91.0848 11.3987 90.8288 11.7133 90.6475 12.108C90.4662 12.492 90.3755 12.908 90.3755 13.356C90.3755 13.8147 90.4768 14.236 90.6795 14.62C90.8822 14.9933 91.1542 15.292 91.4955 15.516C91.8475 15.7293 92.2475 15.836 92.6955 15.836C93.1008 15.836 93.5008 15.7027 93.8955 15.436C94.3008 15.1693 94.5782 14.8333 94.7275 14.428ZM102.864 17.66C101.957 17.66 101.173 17.4627 100.512 17.068C99.8613 16.6733 99.3547 16.1507 98.992 15.5C98.6293 14.8387 98.448 14.124 98.448 13.356C98.448 12.5667 98.624 11.8413 98.976 11.18C99.3387 10.508 99.8507 9.97467 100.512 9.58C101.173 9.17467 101.963 8.972 102.88 8.972C103.797 8.972 104.581 9.17467 105.232 9.58C105.883 9.97467 106.379 10.5027 106.72 11.164C107.072 11.8147 107.248 12.5187 107.248 13.276C107.248 13.5533 107.232 13.7933 107.2 13.996H100.72C100.773 14.6467 101.013 15.1587 101.44 15.532C101.877 15.9053 102.379 16.092 102.944 16.092C103.371 16.092 103.771 15.9907 104.144 15.788C104.528 15.5747 104.789 15.2973 104.928 14.956L106.768 15.468C106.459 16.108 105.963 16.636 105.28 17.052C104.597 17.4573 103.792 17.66 102.864 17.66ZM100.672 12.636H105.056C104.992 12.0067 104.752 11.5 104.336 11.116C103.931 10.7213 103.435 10.524 102.848 10.524C102.272 10.524 101.776 10.7213 101.36 11.116C100.955 11.5 100.725 12.0067 100.672 12.636ZM120.633 8.076H117.001V17.5H114.809V8.076H111.177V6.14H120.633V8.076ZM119.884 15.02C119.884 14.476 120.034 14.0013 120.332 13.596C120.642 13.18 121.068 12.86 121.612 12.636C122.156 12.412 122.78 12.3 123.484 12.3C123.836 12.3 124.194 12.332 124.556 12.396C124.919 12.4493 125.234 12.5293 125.5 12.636V12.188C125.5 11.6547 125.34 11.244 125.02 10.956C124.711 10.668 124.247 10.524 123.628 10.524C123.17 10.524 122.732 10.604 122.316 10.764C121.9 10.924 121.463 11.1587 121.004 11.468L120.316 10.06C120.871 9.69733 121.436 9.42533 122.012 9.244C122.599 9.06267 123.212 8.972 123.852 8.972C125.047 8.972 125.975 9.27067 126.636 9.868C127.308 10.4653 127.644 11.3187 127.644 12.428V15.1C127.644 15.3347 127.682 15.5 127.756 15.596C127.831 15.6813 127.964 15.7347 128.156 15.756V17.5C127.964 17.5427 127.788 17.5693 127.628 17.58C127.479 17.6013 127.351 17.612 127.244 17.612C126.818 17.612 126.492 17.516 126.268 17.324C126.044 17.132 125.911 16.8973 125.868 16.62L125.82 16.188C125.447 16.668 124.988 17.036 124.444 17.292C123.911 17.5373 123.362 17.66 122.796 17.66C122.231 17.66 121.73 17.548 121.292 17.324C120.855 17.0893 120.508 16.7747 120.252 16.38C120.007 15.9747 119.884 15.5213 119.884 15.02ZM125.1 15.452C125.367 15.196 125.5 14.9507 125.5 14.716V13.868C124.946 13.644 124.386 13.532 123.82 13.532C123.255 13.532 122.796 13.6547 122.444 13.9C122.092 14.1347 121.916 14.4493 121.916 14.844C121.916 15.164 122.044 15.452 122.3 15.708C122.556 15.964 122.924 16.092 123.404 16.092C123.724 16.092 124.034 16.0333 124.332 15.916C124.642 15.7987 124.898 15.644 125.1 15.452ZM129.632 5.82H131.776V14.812C131.776 15.2067 131.84 15.468 131.968 15.596C132.096 15.724 132.272 15.788 132.496 15.788C132.667 15.788 132.843 15.7667 133.024 15.724C133.205 15.6813 133.365 15.628 133.504 15.564L133.792 17.196C133.504 17.3347 133.168 17.4413 132.784 17.516C132.4 17.5907 132.053 17.628 131.744 17.628C131.072 17.628 130.549 17.452 130.176 17.1C129.813 16.7373 129.632 16.2253 129.632 15.564V5.82Z" fill="#464646"/>
<defs>
<clipPath id="clip0_1_431">
<rect width="24" height="24" fill="white"/>
</clipPath>
</defs>
</svg>
